<svg id="Grupo_32" data-name="Grupo 32" xmlns="http://www.w3.org/2000/svg" xmlns:xlink="http://www.w3.org/1999/xlink" width="28.957" height="28.957" viewBox="0 0 28.957 28.957">
  <defs>
    <clipPath id="clip-path">
      <rect id="Rectángulo_37" data-name="Rectángulo 37" width="28.957" height="28.957" fill="#0bb2e6"/>
    </clipPath>
  </defs>
  <g id="Grupo_31" data-name="Grupo 31" clip-path="url(#clip-path)">
    <path id="Trazado_120" data-name="Trazado 120" d="M0,6.18A4.633,4.633,0,0,1,1.481,3.423,4.39,4.39,0,0,1,4.436,2.261c.4,0,.791-.011,1.187,0,.216.007.31-.055.3-.286-.017-.291-.009-.584,0-.876a1.148,1.148,0,0,1,2.295,0q.013.452,0,.9c0,.173.044.258.237.257q2.289-.008,4.577,0c.194,0,.241-.085.237-.258-.008-.292-.006-.584,0-.876a1.148,1.148,0,0,1,2.3,0c.006.292.008.584,0,.876,0,.175.047.257.239.256q2.317-.008,4.634,0c.168,0,.239-.058.235-.23-.007-.3-.006-.6,0-.9a1.149,1.149,0,0,1,2.3,0c0,.235,0,.471,0,.706,0,.422,0,.415.436.424a14.154,14.154,0,0,1,1.776.054A4.581,4.581,0,0,1,28.9,6.046a3.7,3.7,0,0,1,.054.5q.006,3.348,0,6.7a1.15,1.15,0,0,1-1.784.959,1.125,1.125,0,0,1-.517-1.008q.006-3.08,0-6.16A2.382,2.382,0,0,0,25.8,5.065a2.442,2.442,0,0,0-1.5-.5c-.357-.015-.716.007-1.073-.007-.221-.009-.275.088-.267.286.011.292.008.584,0,.876a1.148,1.148,0,0,1-2.295,0q-.013-.452,0-.9c0-.174-.045-.258-.238-.257q-2.317.008-4.634,0c-.194,0-.241.086-.236.258.008.292.006.584,0,.876a1.148,1.148,0,0,1-2.3,0c-.006-.292-.008-.584,0-.876,0-.175-.048-.256-.239-.256q-2.289.008-4.577,0c-.168,0-.239.059-.235.231.007.3.006.6,0,.9a1.148,1.148,0,0,1-2.3-.005c-.006-.292-.008-.584,0-.876.005-.176-.05-.259-.24-.254a15.151,15.151,0,0,0-1.523.052A2.244,2.244,0,0,0,2.334,6.423a7.619,7.619,0,0,0-.056.929q0,8.406,0,16.811a2.41,2.41,0,0,0,.85,2,2.487,2.487,0,0,0,1.637.508c2.788,0,5.576,0,8.363,0a1.135,1.135,0,0,1,1.18,1.3,1.221,1.221,0,0,1-.8.977H3.9a4.743,4.743,0,0,1-2.43-1.151A4.689,4.689,0,0,1,0,25.058Z" transform="translate(0 0)" fill="#0bb2e6"/>
    <path id="Trazado_121" data-name="Trazado 121" d="M221.438,229.013a7.492,7.492,0,0,1-2.357-.742,6.656,6.656,0,0,1-3.642-5.17,6.859,6.859,0,1,1,8.924,5.6,11.509,11.509,0,0,1-1.343.314Zm.8-2.286a4.547,4.547,0,1,0-4.549-4.552,4.537,4.537,0,0,0,4.549,4.552" transform="translate(-200.13 -200.056)" fill="#0bb2e6"/>
    <path id="Trazado_122" data-name="Trazado 122" d="M84.707,154a1.149,1.149,0,1,1,1.166-1.124A1.134,1.134,0,0,1,84.707,154" transform="translate(-77.66 -140.965)" fill="#0bb2e6"/>
    <path id="Trazado_123" data-name="Trazado 123" d="M155.338,152.86A1.149,1.149,0,1,1,154.2,151.7a1.134,1.134,0,0,1,1.134,1.157" transform="translate(-142.206 -140.965)" fill="#0bb2e6"/>
    <path id="Trazado_124" data-name="Trazado 124" d="M224.8,152.835a1.149,1.149,0,1,1-1.16-1.13,1.134,1.134,0,0,1,1.16,1.13" transform="translate(-206.754 -140.966)" fill="#0bb2e6"/>
    <path id="Trazado_125" data-name="Trazado 125" d="M294.266,152.869a1.149,1.149,0,1,1-1.125-1.166,1.134,1.134,0,0,1,1.125,1.166" transform="translate(-271.3 -140.964)" fill="#0bb2e6"/>
    <path id="Trazado_126" data-name="Trazado 126" d="M84.7,223.466a1.149,1.149,0,1,1,1.169-1.121,1.134,1.134,0,0,1-1.169,1.121" transform="translate(-77.66 -205.512)" fill="#0bb2e6"/>
    <path id="Trazado_127" data-name="Trazado 127" d="M154.17,223.466a1.149,1.149,0,1,1,1.168-1.123,1.134,1.134,0,0,1-1.168,1.123" transform="translate(-142.207 -205.512)" fill="#0bb2e6"/>
    <path id="Trazado_128" data-name="Trazado 128" d="M85.873,291.8a1.149,1.149,0,1,1-1.126-1.165,1.134,1.134,0,0,1,1.126,1.165" transform="translate(-77.659 -270.058)" fill="#0bb2e6"/>
    <path id="Trazado_129" data-name="Trazado 129" d="M154.211,290.632a1.149,1.149,0,1,1-1.171,1.12,1.134,1.134,0,0,1,1.171-1.12" transform="translate(-142.207 -270.058)" fill="#0bb2e6"/>
    <path id="Trazado_130" data-name="Trazado 130" d="M295.925,265.785c0-.395-.007-.79,0-1.185a1.148,1.148,0,0,1,2.3,0c.008.329.007.658,0,.988,0,.156.059.221.217.219a2.488,2.488,0,0,1,.534.025,1.146,1.146,0,0,1,.885,1.265,1.133,1.133,0,0,1-1.109,1.005c-.574.009-1.148.01-1.721,0a1.12,1.12,0,0,1-1.1-1.1c-.009-.4,0-.809,0-1.213" transform="translate(-274.974 -244.834)" fill="#0bb2e6"/>
  </g>
</svg>
