<svg xmlns="http://www.w3.org/2000/svg" width="13.825" height="23.854" viewBox="0 0 13.825 23.854">
  <path id="Trazado_2015" data-name="Trazado 2015" d="M932.458,22.476q0,1.992,0,3.983a1.209,1.209,0,0,1-.612,1.141,1.152,1.152,0,0,1-.59.141c-1.214,0-2.428,0-3.642,0a1.161,1.161,0,0,1-1.226-1.23c-.007-.736,0-1.472,0-2.208q0-2.9,0-5.8c0-.32,0-.32-.328-.321-.569,0-1.138,0-1.707,0a1.166,1.166,0,0,1-1.277-1.232c-.019-1.153-.021-2.307,0-3.459a1.181,1.181,0,0,1,1.294-1.246c.577-.005,1.153-.012,1.73,0,.236.006.294-.078.293-.3,0-.7-.022-1.41.031-2.115a5.584,5.584,0,0,1,4.967-5.415,5.461,5.461,0,0,1,.727-.015c1.062,0,2.125.022,3.186-.01a1.1,1.1,0,0,1,1.069,1.027c.014,1.183.017,2.367,0,3.55a1.129,1.129,0,0,1-1.163,1.056c-.652.01-1.3,0-1.957.005-.711.006-.785.082-.791.782,0,.394.006.789,0,1.183-.005.188.06.253.249.251.736-.008,1.472-.005,2.208,0A1.274,1.274,0,0,1,936,12.7a1.087,1.087,0,0,1,.243.672c0,1.229.007,2.458,0,3.687a1.13,1.13,0,0,1-1.128,1.113q-1.195.015-2.39,0c-.216,0-.269.072-.268.275.007,1.343,0,2.686,0,4.029m-4.641-.648c0,1.419,0,2.837,0,4.256,0,.2.059.262.259.26.88-.009,1.76,0,2.64,0,.314,0,.315,0,.315-.31q0-4.143,0-8.285c0-.7.293-.994,1-1,.827,0,1.654,0,2.481,0,.306,0,.313-.007.313-.3,0-.835-.005-1.669.006-2.5,0-.222-.075-.284-.29-.282-.88.01-1.76.007-2.64,0a.8.8,0,0,1-.866-.866c0-.706,0-1.411,0-2.117a3.114,3.114,0,0,1,.1-.742,1.747,1.747,0,0,1,1.647-1.306,16.209,16.209,0,0,1,1.932-.039c.19,0,.251-.068.249-.253-.007-.774-.006-1.548,0-2.322,0-.17-.052-.252-.234-.247-.962.025-1.926-.071-2.888.016a4.177,4.177,0,0,0-3,1.471,4.647,4.647,0,0,0-1.008,2.89c-.03.872-.007,1.745-.01,2.617a.809.809,0,0,1-.9.9c-.728,0-1.457.005-2.185,0-.178,0-.238.056-.236.235.007.865.009,1.73,0,2.595,0,.2.071.26.265.258q1.07-.013,2.139,0a.828.828,0,0,1,.92.935q0,2.071,0,4.143" transform="translate(-922.808 -4.137)" fill="#0bb2e6" stroke="#0bb2e6" stroke-width="0.5"/>
</svg>
