<svg id="Grupo_85" data-name="Grupo 85" xmlns="http://www.w3.org/2000/svg" xmlns:xlink="http://www.w3.org/1999/xlink" width="20.241" height="27.356" viewBox="0 0 20.241 27.356">
  <defs>
    <clipPath id="clip-path">
      <rect id="Rectángulo_69" data-name="Rectángulo 69" width="20.241" height="27.356" fill="#0bb2e6"/>
    </clipPath>
  </defs>
  <g id="Grupo_84" data-name="Grupo 84" clip-path="url(#clip-path)">
    <path id="Trazado_2010" data-name="Trazado 2010" d="M9.8,27.356a5.144,5.144,0,0,1-1.813-1.542,45.9,45.9,0,0,1-5.3-7.863,26.424,26.424,0,0,1-2.22-5.075A9.534,9.534,0,0,1,2.947,3,9.569,9.569,0,0,1,9.067.055a10.14,10.14,0,0,1,10.87,7.529,9.723,9.723,0,0,1-.373,5.94,37.142,37.142,0,0,1-3.316,6.65,44.781,44.781,0,0,1-3.882,5.483,12.119,12.119,0,0,1-.9.981,3.432,3.432,0,0,1-1.019.718Zm8.8-17.44c.018-.146-.063-.426-.063-.711a1.007,1.007,0,0,0-.012-.133,8.328,8.328,0,0,0-2.916-5.385A8.16,8.16,0,0,0,8.754,1.775,8.164,8.164,0,0,0,2.7,6.061a7.569,7.569,0,0,0-.883,5.405,17.921,17.921,0,0,0,1.454,3.973,47.394,47.394,0,0,0,4.749,7.775A20.12,20.12,0,0,0,9.9,25.434c.155.155.269.167.416,0,.2-.226.419-.436.617-.664a40.034,40.034,0,0,0,3.636-5.034,35.808,35.808,0,0,0,3.354-6.569,9.912,9.912,0,0,0,.685-3.252" transform="translate(0 0)" fill="#0bb2e6"/>
    <path id="Trazado_2011" data-name="Trazado 2011" d="M36.167,42.181a5.985,5.985,0,1,1,6-5.984,5.994,5.994,0,0,1-6,5.984m.01-1.672a4.317,4.317,0,1,0-4.313-4.322,4.285,4.285,0,0,0,4.313,4.322" transform="translate(-26.056 -26.074)" fill="#0bb2e6"/>
  </g>
</svg>
