<svg id="Grupo_54" data-name="Grupo 54" xmlns="http://www.w3.org/2000/svg" xmlns:xlink="http://www.w3.org/1999/xlink" width="11.606" height="11.622" viewBox="0 0 11.606 11.622">
  <defs>
    <clipPath id="clip-path">
      <rect id="Rectángulo_49" data-name="Rectángulo 49" width="11.606" height="11.622" fill="#0bb2e6"/>
    </clipPath>
  </defs>
  <g id="Grupo_53" data-name="Grupo 53" clip-path="url(#clip-path)">
    <path id="Trazado_203" data-name="Trazado 203" d="M11.606,3.275V8.288c-.027.221-.042.443-.083.662A3.128,3.128,0,0,1,10.5,10.806a3.414,3.414,0,0,1-2.037.778c-.191.015-.383.025-.575.038H3.758c-.045,0-.09-.013-.134-.014a5.163,5.163,0,0,1-.957-.093A3.011,3.011,0,0,1,.2,9.326,5.719,5.719,0,0,1,.013,7.711q-.027-1.876,0-3.753A6.948,6.948,0,0,1,.123,2.65,3.014,3.014,0,0,1,2.365.184,5.91,5.91,0,0,1,3.971.008Q5.8-.009,7.634.008A6.992,6.992,0,0,1,8.976.116a3.015,3.015,0,0,1,2.483,2.266,5.567,5.567,0,0,1,.147.893M5.821,10.568c.677.011,1.353-.011,2.03-.024a5.145,5.145,0,0,0,.958-.086,1.964,1.964,0,0,0,1.617-1.5,4.826,4.826,0,0,0,.126-1.2c.014-.949.014-1.9.011-2.846a14.805,14.805,0,0,0-.075-1.935A1.988,1.988,0,0,0,8.831,1.189a6.991,6.991,0,0,0-1.377-.1q-1.627-.018-3.255,0a8.258,8.258,0,0,0-1.3.085A1.985,1.985,0,0,0,1.2,2.784,5.708,5.708,0,0,0,1.094,4q-.016,1.82,0,3.64A6.227,6.227,0,0,0,1.179,8.77a1.957,1.957,0,0,0,1.51,1.655,4.671,4.671,0,0,0,1.113.12c.673.013,1.345.035,2.018.024" transform="translate(0 0)" fill="#0bb2e6"/>
    <path id="Trazado_204" data-name="Trazado 204" d="M127.163,129.917a3,3,0,1,1,3-2.993,3.009,3.009,0,0,1-3,2.993m0-1.079a1.921,1.921,0,1,0-1.921-1.916,1.92,1.92,0,0,0,1.921,1.916" transform="translate(-121.345 -121.102)" fill="#0bb2e6"/>
    <path id="Trazado_205" data-name="Trazado 205" d="M362.288,89.542a.693.693,0,0,1-.7-.707.71.71,0,0,1,.7-.71.724.724,0,0,1,.712.708.71.71,0,0,1-.717.708" transform="translate(-353.37 -86.123)" fill="#0bb2e6"/>
  </g>
</svg>
