<svg xmlns="http://www.w3.org/2000/svg" width="24.674" height="24.728" viewBox="0 0 24.674 24.728">
  <path id="Trazado_2014" data-name="Trazado 2014" d="M415.433,16.933c-.944-.983-1.968-2.006-3.044-3.043a2.426,2.426,0,0,0-3.459-.062c-.437.384-.847.8-1.243,1.208-.16.164-.326.334-.491.5a.32.32,0,0,1-.047.04.285.285,0,0,1-.043-.024c-.112-.071-.227-.131-.339-.188-.092-.047-.178-.092-.26-.141a16.071,16.071,0,0,1-3.545-2.956A13.251,13.251,0,0,1,400.748,9.2a.365.365,0,0,1-.028-.071.219.219,0,0,1,.048-.057l.224-.214a21.366,21.366,0,0,0,1.583-1.624,2.383,2.383,0,0,0-.007-3.188c-.915-1.024-1.977-2.094-3.246-3.272a2.44,2.44,0,0,0-3.513-.055,22.632,22.632,0,0,0-2.228,2.227,3.855,3.855,0,0,0-.919,2.524,9.018,9.018,0,0,0,.537,3.185,23.134,23.134,0,0,0,5.2,8.319,24.315,24.315,0,0,0,6,4.685,18.628,18.628,0,0,0,3.66,1.607,14.115,14.115,0,0,0,1.906.4l1.291,0,.031-.009.042-.013.035-.01a3.592,3.592,0,0,0,2.051-.951c.643-.616,1.4-1.354,2.1-2.145a2.474,2.474,0,0,0-.084-3.61M399.416,8.015a1.251,1.251,0,0,0-.324,1.665,13.69,13.69,0,0,0,2.34,3.451,19.137,19.137,0,0,0,3.851,3.36,13.117,13.117,0,0,0,1.265.7l.124.063A1.188,1.188,0,0,0,408.142,17q.407-.4.811-.808t.838-.835a2.911,2.911,0,0,1,.38-.326.711.711,0,0,1,.978.056c1.033,1.008,2.043,2,3.039,3.024a.89.89,0,0,1-.032,1.434c-.233.243-.475.486-.709.721-.31.311-.63.633-.936.961a2.361,2.361,0,0,1-1.943.778,9.341,9.341,0,0,1-3.253-.807,22.7,22.7,0,0,1-7.822-5.546,22.73,22.73,0,0,1-3.816-5.463,12.8,12.8,0,0,1-1.26-3.723,3.15,3.15,0,0,1,.31-2.2,2.614,2.614,0,0,1,.364-.45c.676-.682,1.224-1.229,1.724-1.724a1.01,1.01,0,0,1,.71-.355.835.835,0,0,1,.168.018.913.913,0,0,1,.464.259l.678.674c.76.755,1.546,1.536,2.306,2.314a.816.816,0,0,1,0,1.306c-.518.558-1.062,1.087-1.719,1.71" transform="translate(-392.159 0.558)" fill="#0bb2e6" stroke="#0bb2e6" stroke-width="1"/>
</svg>
