<svg xmlns="http://www.w3.org/2000/svg" width="21.457" height="21.466" viewBox="0 0 21.457 21.466">
  <g id="Grupo_86" data-name="Grupo 86" transform="translate(0)">
    <path id="Trazado_2012" data-name="Trazado 2012" d="M0,62.964A10.728,10.728,0,1,1,10.7,73.717,10.743,10.743,0,0,1,0,62.964m2.432.009a8.292,8.292,0,1,0,8.309-8.281,8.292,8.292,0,0,0-8.309,8.281" transform="translate(0 -52.25)" fill="#0bb2e6"/>
    <path id="Trazado_2013" data-name="Trazado 2013" d="M127.439,119.671c0-.734,0-1.468,0-2.2a1.362,1.362,0,0,1,.266-.89,1.211,1.211,0,0,1,2.146.468,2.256,2.256,0,0,1,.049.5q.008,1.129,0,2.257c0,.22.065.261.262.16.512-.263,1.023-.532,1.547-.767a1.2,1.2,0,0,1,1.732.948,1.143,1.143,0,0,1-.523,1.152,3.633,3.633,0,0,1-.464.254c-1.046.525-2.089,1.055-3.141,1.569a1.239,1.239,0,0,1-1.875-1.161c0-.019,0-.037,0-.056q0-1.115,0-2.23" transform="translate(-117.947 -111.34)" fill="#0bb2e6"/>
  </g>
</svg>
